<?xml version="1.0" encoding="utf-8"?>
<!-- Generator: Adobe Illustrator 16.0.0, SVG Export Plug-In . SVG Version: 6.00 Build 0)  -->
<svg version="1.2" baseProfile="tiny" id="Layer_1" xmlns="http://www.w3.org/2000/svg" xmlns:xlink="http://www.w3.org/1999/xlink"
	 x="0px" y="0px" width="32px" height="32px" viewBox="0 0 32 32" xml:space="preserve">
<g>
	<rect x="7.019" y="15.058" fill="#FFFFFF" width="16.001" height="2"/>
	<rect x="7.019" y="21.058" fill="#FFFFFF" width="8.658" height="2"/>
	<polygon fill="#FFFFFF" points="30.629,3.414 28.828,1.614 26.128,4.313 23.429,1.614 21.628,3.414 24.328,6.113 21.628,8.813 
		23.429,10.612 26.128,7.913 28.828,10.612 30.629,8.813 27.929,6.113 	"/>
	<polygon fill="#FFFFFF" points="19.508,10.936 17.626,9.057 7.019,9.057 7.019,11.058 19.63,11.058 	"/>
	<path fill="#FFFFFF" d="M26.707,12.734l-0.579-0.579l-0.108,0.108v14.794c0,0.552-0.448,1-1,1H5.019c-0.552,0-1-0.448-1-1V5.057
		c0-0.552,0.448-1,1-1h13.009l-0.643-0.643l1.357-1.357H5.019c-1.657,0-3,1.343-3,3v22.001c0,1.656,1.343,3,3,3H25.02
		c1.656,0,3-1.344,3-3V14.046L26.707,12.734z"/>
</g>
</svg>
