<?xml version="1.0" encoding="utf-8"?>
<!-- Generator: Adobe Illustrator 16.0.0, SVG Export Plug-In . SVG Version: 6.00 Build 0)  -->
<svg version="1.2" baseProfile="tiny" id="Layer_1" xmlns="http://www.w3.org/2000/svg" xmlns:xlink="http://www.w3.org/1999/xlink"
	 x="0px" y="0px" width="32px" height="32px" viewBox="0 0 32 32" xml:space="preserve">
<g>
	<path fill="#FFFFFF" d="M26.02,8.008c0.552,0,1,0.449,1,1v14c0,0.552-0.448,1-1,1H6.019c-0.552,0-1-0.448-1-1v-14
		c0-0.551,0.448-1,1-1H26.02 M26.02,6.008H6.019c-1.657,0-3,1.343-3,3v14c0,1.657,1.343,3,3,3H26.02c1.656,0,3-1.343,3-3v-14
		C29.02,7.352,27.676,6.008,26.02,6.008L26.02,6.008z"/>
	<path fill="#FFFFFF" d="M16.019,17.008c-0.215,0-0.43-0.069-0.609-0.207l-10.401-8c-0.438-0.336-0.52-0.964-0.184-1.402
		C5.161,6.96,5.789,6.877,6.227,7.215l9.792,7.531l10.214-7.856c0.438-0.337,1.065-0.255,1.402,0.183
		c0.336,0.438,0.255,1.066-0.184,1.402l-10.823,8.325C16.448,16.939,16.233,17.008,16.019,17.008z"/>
</g>
</svg>
