<?xml version="1.0" encoding="utf-8"?>
<!-- Generator: Adobe Illustrator 16.0.0, SVG Export Plug-In . SVG Version: 6.00 Build 0)  -->
<svg version="1.2" baseProfile="tiny" id="Layer_1" xmlns="http://www.w3.org/2000/svg" xmlns:xlink="http://www.w3.org/1999/xlink"
	 x="0px" y="0px" width="32px" height="32px" viewBox="0 0 32 32" xml:space="preserve">
<path fill="#FFFFFF" d="M21.837,18.006c-0.33,0.633-0.725,1.202-1.166,1.707c3.516,1.115,6.186,3.444,7.05,6.289H4.317
	c0.864-2.845,3.534-5.174,7.05-6.289c-0.441-0.505-0.836-1.074-1.166-1.707c-4.825,1.736-8.183,5.554-8.183,9.996H30.02
	C30.02,23.56,26.661,19.742,21.837,18.006z"/>
<path fill="#FFFFFF" d="M16.019,6.001c2.711,0,5.001,3.206,5.001,7s-2.29,7-5.001,7c-2.71,0-5-3.206-5-7S13.309,6.001,16.019,6.001
	 M16.019,4.001c-3.865,0-7,4.029-7,9c0,4.971,3.135,9,7,9c3.866,0,7.001-4.029,7.001-9C23.02,8.031,19.885,4.001,16.019,4.001
	L16.019,4.001z"/>
</svg>
