<?xml version="1.0" encoding="utf-8"?>
<!-- Generator: Adobe Illustrator 16.0.0, SVG Export Plug-In . SVG Version: 6.00 Build 0)  -->
<svg version="1.2" baseProfile="tiny" id="Layer_1" xmlns="http://www.w3.org/2000/svg" xmlns:xlink="http://www.w3.org/1999/xlink"
	 x="0px" y="0px" width="32px" height="32px" viewBox="0 0 32 32" xml:space="preserve">
<g>
	<path fill="#FFFFFF" d="M15.982,4.863c0.013,0,0.024,0,0.036,0s0.023,0,0.035,0c0.036,0.006,0.073,0.01,0.11,0.014
		c3.551,0.318,6.334,4.506,6.348,9.54c-0.04,0.801-0.206,6.158,2.244,8.746c0.521,0.549,1.131,0.946,1.805,1.18v1.577H16.298H15.74
		H5.477v-1.577c0.674-0.233,1.284-0.631,1.805-1.18c2.45-2.588,2.284-7.945,2.244-8.746c0.014-5.034,2.798-9.222,6.349-9.54
		C15.911,4.874,15.947,4.869,15.982,4.863 M16.298,3.346c-0.094,0-0.186,0.014-0.279,0.018c-0.094-0.004-0.185-0.018-0.278-0.018
		v0.037C11.434,3.77,8.025,8.572,8.025,14.455c0,0,0.471,8.635-4.049,8.635v4.33H15.74h0.558h11.763v-4.33
		c-4.52,0-4.049-8.635-4.049-8.635c0-5.883-3.407-10.686-7.714-11.072V3.346L16.298,3.346z"/>
	<circle fill="#FFFFFF" cx="15.74" cy="2.629" r="2.629"/>
	<path fill="#FFFFFF" d="M20.118,30.75c-2.225,0-4.034-1.81-4.034-4.033h1.5c0,1.396,1.137,2.533,2.534,2.533
		s2.535-1.137,2.535-2.533h1.5C24.153,28.94,22.343,30.75,20.118,30.75z"/>
</g>
</svg>
