<?xml version="1.0" encoding="utf-8"?>
<!-- Generator: Adobe Illustrator 16.0.0, SVG Export Plug-In . SVG Version: 6.00 Build 0)  -->
<svg version="1.2" baseProfile="tiny" id="Layer_1" xmlns="http://www.w3.org/2000/svg" xmlns:xlink="http://www.w3.org/1999/xlink"
	 x="0px" y="0px" width="32px" height="32px" viewBox="0 0 32 32" xml:space="preserve">
<g>
	<g>
		<g>
			<path fill="#FFFFFF" d="M25.02,22.502c1.379,0,2.5,1.121,2.5,2.5s-1.121,2.5-2.5,2.5s-2.5-1.121-2.5-2.5
				S23.641,22.502,25.02,22.502 M25.02,21.002c-2.209,0-4,1.791-4,4s1.791,4,4,4s4-1.791,4-4S27.229,21.002,25.02,21.002
				L25.02,21.002z"/>
		</g>
		<g>
			<path fill="#FFFFFF" d="M16.019,13.501c1.379,0,2.5,1.122,2.5,2.5c0,1.378-1.121,2.5-2.5,2.5s-2.5-1.122-2.5-2.5
				C13.519,14.623,14.64,13.501,16.019,13.501 M16.019,12.001c-2.209,0-4,1.791-4,4s1.791,4,4,4s4-1.791,4-4
				S18.228,12.001,16.019,12.001L16.019,12.001z"/>
		</g>
		<g>
			<path fill="#FFFFFF" d="M7.018,4.5c1.379,0,2.5,1.122,2.5,2.5s-1.121,2.5-2.5,2.5s-2.5-1.122-2.5-2.5S5.639,4.5,7.018,4.5
				 M7.018,3c-2.209,0-4,1.791-4,4s1.791,4,4,4s4-1.791,4-4S9.227,3,7.018,3L7.018,3z"/>
		</g>
	</g>
	<g>
		<path fill="#FFFFFF" d="M12.019,16.001c0-0.322,0.048-0.631,0.12-0.931H0.017v2h12.165C12.086,16.728,12.019,16.374,12.019,16.001
			z"/>
		<path fill="#FFFFFF" d="M3.018,7c0-0.322,0.048-0.631,0.12-0.931H0.017v2h3.164C3.085,7.728,3.018,7.374,3.018,7z"/>
		<path fill="#FFFFFF" d="M10.897,6.07c0.072,0.3,0.12,0.609,0.12,0.931c0,0.373-0.067,0.727-0.163,1.069h21.164v-2H10.897z"/>
		<path fill="#FFFFFF" d="M21.02,25.002c0-0.322,0.048-0.631,0.12-0.931H0.017v2h21.166C21.087,25.729,21.02,25.375,21.02,25.002z"
			/>
		<path fill="#FFFFFF" d="M20.019,16.001c0,0.373-0.067,0.727-0.163,1.069h12.163v-2h-12.12
			C19.971,15.37,20.019,15.679,20.019,16.001z"/>
		<path fill="#FFFFFF" d="M29.02,25.002c0,0.373-0.067,0.727-0.163,1.069h3.162v-2h-3.119C28.972,24.371,29.02,24.68,29.02,25.002z"
			/>
	</g>
</g>
</svg>
