<?xml version="1.0" encoding="utf-8"?>
<!-- Generator: Adobe Illustrator 16.0.0, SVG Export Plug-In . SVG Version: 6.00 Build 0)  -->
<svg version="1.2" baseProfile="tiny" id="Layer_1" xmlns="http://www.w3.org/2000/svg" xmlns:xlink="http://www.w3.org/1999/xlink"
	 x="0px" y="0px" width="150px" height="150px" viewBox="0 0 150 150" xml:space="preserve">
<g>
	<path fill="#FFFFFF" d="M74.997,1.917c-5.786,0-10.495,4.71-10.495,10.5c0,5.789,4.709,10.501,10.495,10.501
		c5.79,0,10.505-4.712,10.505-10.501C85.502,6.626,80.787,1.917,74.997,1.917z"/>
	<path fill="#FFFFFF" d="M74.998,71.359c-4.135,0-7.498,3.363-7.498,7.5c0,4.137,3.363,7.5,7.498,7.5c4.136,0,7.502-3.363,7.502-7.5
		C82.5,74.722,79.134,71.359,74.998,71.359z"/>
	<path fill="#FFFFFF" d="M74.998,139.084c-2.479,0-4.496,2.018-4.496,4.5s2.018,4.5,4.496,4.5c2.483,0,4.504-2.018,4.504-4.5
		S77.481,139.084,74.998,139.084z"/>
	<path fill="#FFFFFF" d="M7.968,71.947c-4.136,0-7.499,3.363-7.499,7.5c0,4.137,3.363,7.5,7.499,7.5c4.138,0,7.501-3.363,7.501-7.5
		C15.469,75.31,12.105,71.947,7.968,71.947z"/>
	<path fill="#FFFFFF" d="M142.029,71.947c-4.135,0-7.498,3.363-7.498,7.5c0,4.137,3.363,7.5,7.498,7.5s7.502-3.363,7.502-7.5
		C149.531,75.31,146.164,71.947,142.029,71.947z"/>
	<path fill="#FFFFFF" d="M108.367,37.083c-4.966,0-9.002,4.037-9.002,8.999c0,4.965,4.036,9.001,9.002,9.001
		c4.96,0,8.998-4.036,8.998-9.001C117.365,41.121,113.327,37.083,108.367,37.083z"/>
	<path fill="#FFFFFF" d="M40.776,37.083c-4.965,0-9.001,4.037-9.001,8.999c0,4.965,4.036,9.001,9.001,9.001
		c4.961,0,8.999-4.036,8.999-9.001C49.775,41.121,45.737,37.083,40.776,37.083z"/>
	<path fill="#FFFFFF" d="M108.366,107.102c-3.309,0-6.001,2.689-6.001,5.998c0,3.307,2.692,6.002,6.001,6.002
		c3.31,0,5.999-2.695,5.999-6.002C114.365,109.791,111.676,107.102,108.366,107.102z"/>
	<path fill="#FFFFFF" d="M40.776,107.102c-3.309,0-6.003,2.689-6.003,5.998c0,3.307,2.694,6.002,6.003,6.002
		c3.307,0,5.997-2.695,5.997-6.002C46.773,109.791,44.083,107.102,40.776,107.102z"/>
</g>
</svg>
