<?xml version="1.0" encoding="iso-8859-1"?>
<!-- Generator: Adobe Illustrator 16.0.0, SVG Export Plug-In . SVG Version: 6.00 Build 0)  -->
<!DOCTYPE svg PUBLIC "-//W3C//DTD SVG 1.1//EN" "http://www.w3.org/Graphics/SVG/1.1/DTD/svg11.dtd">
<svg xmlns="http://www.w3.org/2000/svg" xmlns:xlink="http://www.w3.org/1999/xlink" version="1.1" id="Capa_1" x="0px" y="0px" width="512px" height="512px" viewBox="0 0 25.314 25.314" style="enable-background:new 0 0 25.314 25.314;" xml:space="preserve">
<g>
	<path d="M24.663,20.725c-0.086,0.168-0.258,0.271-0.443,0.271h-8.762c0.171,0.383,0.27,0.803,0.27,1.246   c0,1.697-1.375,3.072-3.07,3.072c-1.694,0-3.07-1.375-3.07-3.072c0-0.443,0.099-0.863,0.271-1.246H1.096   c-0.188,0-0.358-0.104-0.445-0.271c-0.084-0.166-0.069-0.366,0.041-0.521l4.17-5.787V7.798C4.861,3.498,8.359,0,12.659,0   c4.301,0,7.798,3.498,7.798,7.798v6.619l4.171,5.787C24.732,20.358,24.748,20.559,24.663,20.725z" fill="#FFFFFF"/>
</g>
<g>
</g>
<g>
</g>
<g>
</g>
<g>
</g>
<g>
</g>
<g>
</g>
<g>
</g>
<g>
</g>
<g>
</g>
<g>
</g>
<g>
</g>
<g>
</g>
<g>
</g>
<g>
</g>
<g>
</g>
</svg>
