<?xml version="1.0" encoding="utf-8"?> <!-- Generator: IcoMoon.io --> <!DOCTYPE svg PUBLIC "-//W3C//DTD SVG 1.1//EN" "http://www.w3.org/Graphics/SVG/1.1/DTD/svg11.dtd"> <svg width="512" height="512" viewBox="0 0 512 512" xmlns="http://www.w3.org/2000/svg" xmlns:xlink="http://www.w3.org/1999/xlink" fill="#000000"><path d="M 192.00,256.00l-32.176,77.44L 256.00,320.00L 192.00,256.00z M 224.00,229.824L 282.192,288.00L 512.00,58.192L 453.808,0.00 L 224.00,229.824z M 64.00,0.00C 32.00,0.00,0.00,32.00,0.00,64.00l0.00,384.00 c0.00,32.00, 32.00,64.00, 64.00,64.00l 384.00,0.00 c 32.00,0.00, 64.00-32.00, 64.00-64.00L 512.00,134.40 L 448.00,172.80L 448.00,384.00 c0.00,32.00-32.00,64.00-64.00,64.00L 128.00,448.00 c-32.00,0.00-64.00-32.00-64.00-64.00L 64.00,128.00 c0.00-32.00, 32.00-64.00, 64.00-64.00l 192.00,0.00 l 64.00-64.00L 64.00,0.00 z" ></path></svg>