<?xml version="1.0" encoding="UTF-8"?>
<!DOCTYPE svg PUBLIC "-//W3C//DTD SVG 1.1//EN" "http://www.w3.org/Graphics/SVG/1.1/DTD/svg11.dtd">
<!-- Creator: CorelDRAW -->
<svg xmlns="http://www.w3.org/2000/svg" xml:space="preserve" width="64px" height="64px" style="shape-rendering:geometricPrecision; text-rendering:geometricPrecision; image-rendering:optimizeQuality; fill-rule:evenodd; clip-rule:evenodd"
viewBox="0 0 640 640"
 xmlns:xlink="http://www.w3.org/1999/xlink">
 <defs>
  <style type="text/css">
   <![CDATA[
    .fil0 {fill:black}
   ]]>
  </style>
 </defs>
 <g id="Layer_x0020_1">
  <metadata id="CorelCorpID_0Corel-Layer"/>
  <path class="fil0" d="M185.884 128.883l268.232 0c102.226,0 185.884,85.9971 185.884,191.117l0 0c0,105.119 -83.6585,191.117 -185.884,191.117l-268.232 0c-102.226,0 -185.884,-85.9971 -185.884,-191.117l0 0c0,-105.119 83.6585,-191.117 185.884,-191.117zm262.999 40.9493c84.2845,0 152.648,68.3512 152.648,152.636 0,84.2963 -68.363,152.671 -152.648,152.671 -84.2963,0 -152.648,-68.3749 -152.648,-152.671 0,-84.2845 68.3512,-152.636 152.648,-152.636z"/>
 </g>
</svg>
