<?xml version="1.0" encoding="iso-8859-1"?>
<!-- Generator: Adobe Illustrator 16.0.0, SVG Export Plug-In . SVG Version: 6.00 Build 0)  -->
<!DOCTYPE svg PUBLIC "-//W3C//DTD SVG 1.1//EN" "http://www.w3.org/Graphics/SVG/1.1/DTD/svg11.dtd">
<svg xmlns="http://www.w3.org/2000/svg" xmlns:xlink="http://www.w3.org/1999/xlink" version="1.1" id="Capa_1" x="0px" y="0px" width="512px" height="512px" viewBox="0 0 27.75 27.75" style="enable-background:new 0 0 27.75 27.75;" xml:space="preserve">
<g>
	<path d="M13.875,27.75l-4.268-7.393H4.273c-2.195,0-3.98-1.618-3.98-3.609V3.61C0.293,1.619,2.079,0,4.273,0h19.204   c2.194,0,3.979,1.619,3.979,3.61v13.138c0,1.991-1.785,3.609-3.979,3.609h-5.334L13.875,27.75z M4.273,2   c-1.091,0-1.98,0.722-1.98,1.61v13.138c0,0.888,0.889,1.609,1.98,1.609h6.486l3.113,5.393l3.112-5.393h6.49   c1.092,0,1.979-0.722,1.979-1.609V3.61c0-0.888-0.89-1.61-1.979-1.61H4.273z" fill="#FFFFFF"/>
</g>
<g>
</g>
<g>
</g>
<g>
</g>
<g>
</g>
<g>
</g>
<g>
</g>
<g>
</g>
<g>
</g>
<g>
</g>
<g>
</g>
<g>
</g>
<g>
</g>
<g>
</g>
<g>
</g>
<g>
</g>
</svg>
