<?xml version="1.0" encoding="utf-8"?> <!-- Generator: IcoMoon.io --> <!DOCTYPE svg PUBLIC "-//W3C//DTD SVG 1.1//EN" "http://www.w3.org/Graphics/SVG/1.1/DTD/svg11.dtd"> <svg width="512" height="512" viewBox="0 0 512 512" xmlns="http://www.w3.org/2000/svg" xmlns:xlink="http://www.w3.org/1999/xlink" fill="#000000"><path d="M 491.536,108.384l-147.152,148.048l 147.152,147.168c 6.16,6.144, 6.16,16.112,0.00,22.272 l-66.816,66.80c-6.128,6.16-16.096,6.16-22.256,0.00l-146.912-146.912l-146.032,146.912c-6.144,6.16-16.112,6.16-22.272,0.00l-66.80-66.80 c-6.144-6.16-6.144-16.128,0.00-22.272l 146.032-146.912L 20.464,110.672c-6.144-6.144-6.144-16.112,0.00-22.272l 66.80-66.80 c 6.144-6.16, 16.112-6.16, 22.272,0.00l 145.76,145.76l 147.184-148.048c 6.16-6.16, 16.128-6.16, 22.256,0.00l 66.816,66.80 C 497.68,92.272, 497.68,102.24, 491.536,108.384z" ></path></svg>