<?xml version="1.0" encoding="iso-8859-1"?>
<!-- Generator: Adobe Illustrator 18.1.1, SVG Export Plug-In . SVG Version: 6.00 Build 0)  -->
<svg version="1.1" id="Capa_1" xmlns="http://www.w3.org/2000/svg" xmlns:xlink="http://www.w3.org/1999/xlink" x="0px" y="0px"
	 viewBox="0 0 20 20" style="enable-background:new 0 0 20 20;" xml:space="preserve">
<g>
	<path style="fill:#030104;" d="M19.82,9.43c-0.083-0.119-2.062-2.944-4.793-4.875C13.612,3.552,11.826,3,10,3
		C8.175,3,6.389,3.552,4.97,4.555C2.238,6.486,0.261,9.311,0.179,9.43c-0.238,0.343-0.238,0.798,0,1.141
		c0.083,0.119,2.06,2.944,4.791,4.875C6.389,16.448,8.175,17,10,17c1.826,0,3.612-0.552,5.028-1.555
		c2.731-1.931,4.71-4.756,4.793-4.875C20.059,10.228,20.059,9.772,19.82,9.43z M10,13.5c-1.934,0-3.5-1.57-3.5-3.5
		c0-1.934,1.566-3.5,3.5-3.5c1.93,0,3.5,1.566,3.5,3.5C13.5,11.93,11.93,13.5,10,13.5z"/>
	<g>
		<path style="fill:#030104;" d="M12,10c0,1.102-0.898,2-2,2c-1.105,0-2-0.898-2-2c0-1.105,0.895-2,2-2C11.102,8,12,8.895,12,10z"/>
	</g>
</g>
<g>
</g>
<g>
</g>
<g>
</g>
<g>
</g>
<g>
</g>
<g>
</g>
<g>
</g>
<g>
</g>
<g>
</g>
<g>
</g>
<g>
</g>
<g>
</g>
<g>
</g>
<g>
</g>
<g>
</g>
</svg>
