<?xml version="1.0" encoding="iso-8859-1"?>
<!-- Generator: Adobe Illustrator 19.0.0, SVG Export Plug-In . SVG Version: 6.00 Build 0)  -->
<svg xmlns="http://www.w3.org/2000/svg" xmlns:xlink="http://www.w3.org/1999/xlink" version="1.1" id="Layer_1" x="0px" y="0px" viewBox="0 0 512 512" style="enable-background:new 0 0 512 512;" xml:space="preserve" width="512px" height="512px">
<g>
	<g>
		<path d="M256,151c-57.897,0-105,47.103-105,105c0,57.897,47.103,105,105,105c57.897,0,105-47.103,105-105    C361,198.103,313.897,151,256,151z M256,331c-41.355,0-75-33.645-75-75c0-41.355,33.645-75,75-75s75,33.645,75,75    S297.355,331,256,331z" fill="#FFFFFF"/>
	</g>
</g>
<g>
	<g>
		<path d="M500.582,211.434l-58.674-14.428c-3.532-11.13-8.068-21.925-13.551-32.249c8.78-14.634,27.343-45.573,27.343-45.573    c3.541-5.902,2.611-13.457-2.256-18.324l-42.426-42.426c-4.867-4.867-12.422-5.797-18.324-2.256    c-0.38,0.228-30.777,18.466-45.626,27.355c-10.269-5.431-20.995-9.927-32.052-13.434c-4.428-17.976-14.451-58.686-14.452-58.686    C298.914,4.711,292.902,0,286,0h-60c-6.903,0-12.915,4.711-14.565,11.414c-4.126,16.76-11.024,44.779-14.45,58.68    c-11.762,3.73-23.143,8.578-34.001,14.482c-6.428-3.856-16.007-9.604-24.869-14.921l-22.462-13.477    c-5.905-3.541-13.457-2.61-18.324,2.256L54.901,100.86c-4.867,4.867-5.797,12.422-2.256,18.324    c0.2,0.335,17.785,29.644,29.271,48.869c-4.712,9.31-8.665,18.986-11.817,28.919c-20.002,4.976-58.223,14.35-58.671,14.46    C4.718,213.077,0,219.092,0,226v60c0,6.909,4.719,12.923,11.429,14.568c0.443,0.109,38.381,9.411,58.687,14.436    c3.565,11.302,8.184,22.273,13.796,32.78l-26.194,43.66c-3.541,5.902-2.611,13.458,2.256,18.324l42.427,42.427    c4.867,4.868,12.421,5.797,18.324,2.256c0.369-0.222,29.463-17.678,43.746-26.227c10.419,5.547,21.313,10.131,32.547,13.692    l14.416,58.66C213.079,507.284,219.093,512,226,512h60c6.904,0,12.917-4.713,14.566-11.418l14.427-58.669    c11.539-3.661,22.671-8.39,33.257-14.128c14.427,8.656,44.444,26.667,44.444,26.667c5.901,3.541,13.457,2.612,18.324-2.256    l42.426-42.427c4.867-4.867,5.797-12.422,2.256-18.324c0,0-18.271-30.452-26.958-44.931c5.308-10.088,9.712-20.634,13.161-31.511    c17.824-4.399,58.19-14.317,58.676-14.436C507.285,298.919,512,292.906,512,286v-60C512,219.095,507.287,213.083,500.582,211.434z     M482,274.24c-17.32,4.257-48.723,11.979-54.72,13.479l-1.131,0.283c-5.231,1.36-9.326,5.43-10.719,10.653    c-3.795,14.229-9.495,27.872-16.942,40.548c-2.779,4.732-2.753,10.605,0.069,15.312c0.78,1.301,16.489,27.483,25.393,42.322    L398.087,422.7c-15.046-9.027-41.716-25.029-41.942-25.165c-4.775-2.866-10.743-2.853-15.501,0.035    c-13,7.885-27.109,13.892-41.938,17.854c-5.177,1.383-9.224,5.422-10.614,10.597c-0.828,3.081-1.644,6.34-1.658,6.397L274.241,482    h-36.479l-10.813-44.042l-2.916-11.664c-1.322-5.292-5.415-9.45-10.686-10.855c-14.533-3.876-28.479-9.747-41.449-17.447    c-4.709-2.797-10.57-2.802-15.285-0.018c-3.23,1.908-27.254,16.313-41.282,24.728l-25.865-25.865l24.661-41.104    c2.841-4.736,2.85-10.65,0.022-15.395c-7.784-13.063-13.685-27.073-17.535-41.643c-1.397-5.286-5.56-9.393-10.863-10.719    c-10.737-2.684-39.564-9.767-55.752-13.741v-36.473c16.342-4.015,45.537-11.199,55.762-13.786    c5.271-1.334,9.408-5.417,10.812-10.671c3.564-13.347,8.822-26.228,15.63-38.286c2.646-4.686,2.578-10.43-0.177-15.053    c-7.25-12.166-20.08-33.577-27.632-46.172l25.865-25.866l12.42,7.452c14.968,8.981,31.98,19.188,32.44,19.463    c4.768,2.85,10.722,2.832,15.472-0.049c13.341-8.088,27.726-14.222,42.756-18.232c5.264-1.404,9.352-5.552,10.68-10.836    c0.282-1.121,9.071-36.815,13.728-55.726h36.49c4.915,19.958,13.621,55.312,13.724,55.722c1.326,5.288,5.417,9.44,10.685,10.845    c14.382,3.836,28.193,9.626,41.05,17.208c4.714,2.781,10.57,2.773,15.276-0.021c4.208-2.498,28.881-17.293,43.106-25.827    l25.864,25.864c-9.037,15.062-25.121,41.869-25.795,42.991c-2.836,4.725-2.853,10.625-0.043,15.367    c7.628,12.872,13.451,26.714,17.308,41.141c1.382,5.167,5.408,9.207,10.57,10.604c3.097,0.839,6.373,1.657,6.428,1.671    L482,237.758V274.24z" fill="#FFFFFF"/>
	</g>
</g>
<g>
</g>
<g>
</g>
<g>
</g>
<g>
</g>
<g>
</g>
<g>
</g>
<g>
</g>
<g>
</g>
<g>
</g>
<g>
</g>
<g>
</g>
<g>
</g>
<g>
</g>
<g>
</g>
<g>
</g>
</svg>
