<?xml version="1.0" encoding="iso-8859-1"?>
<!-- Generator: Adobe Illustrator 18.1.1, SVG Export Plug-In . SVG Version: 6.00 Build 0)  -->
<svg xmlns="http://www.w3.org/2000/svg" xmlns:xlink="http://www.w3.org/1999/xlink" version="1.1" id="Capa_1" x="0px" y="0px" viewBox="0 0 512 512" style="enable-background:new 0 0 512 512;" xml:space="preserve" width="512px" height="512px">
<g>
	<g>
		<g>
			<path d="M30,92c-8,0-13,0.667-15,2s-2.333,2.833-1,4.5s4.667,4.5,10,8.5c2.667,2,4.667,3.667,6,5l226,172     l226-171l5-5c5.333-4,8.833-6.833,10.5-8.5s1.5-3.333-0.5-5s-7-2.5-15-2.5H241H30z" fill="#FFFFFF"/>
			<path d="M0,132v254c0,7.333,3,14.833,9,22.5S21,420,27,420h458c6,0,12-3.833,18-11.5s9-15.167,9-22.5V132     L256,328L0,132z" fill="#FFFFFF"/>
		</g>
	</g>
</g>
<g>
</g>
<g>
</g>
<g>
</g>
<g>
</g>
<g>
</g>
<g>
</g>
<g>
</g>
<g>
</g>
<g>
</g>
<g>
</g>
<g>
</g>
<g>
</g>
<g>
</g>
<g>
</g>
<g>
</g>
</svg>
