<?xml version="1.0" encoding="iso-8859-1"?>
<!-- Generator: Adobe Illustrator 16.0.0, SVG Export Plug-In . SVG Version: 6.00 Build 0)  -->
<!DOCTYPE svg PUBLIC "-//W3C//DTD SVG 1.1//EN" "http://www.w3.org/Graphics/SVG/1.1/DTD/svg11.dtd">
<svg version="1.1" id="Capa_1" xmlns="http://www.w3.org/2000/svg" xmlns:xlink="http://www.w3.org/1999/xlink" x="0px" y="0px"
	 width="410.23px" height="410.23px" viewBox="0 0 410.23 410.23" style="enable-background:new 0 0 410.23 410.23;"
	 xml:space="preserve">
<g>
	<path d="M401.625,364.092l-107.1-107.1c19.125-26.775,30.6-59.288,30.6-93.713c0-89.888-72.675-162.562-162.562-162.562
		S0,73.392,0,163.279s72.675,162.562,162.562,162.562c34.425,0,66.938-11.475,93.713-30.6l107.1,107.1
		c9.562,9.562,26.775,9.562,38.25,0l0,0C413.1,390.867,413.1,375.566,401.625,364.092z M162.562,287.592
		c-68.85,0-124.312-55.463-124.312-124.312c0-68.85,55.462-124.312,124.312-124.312c68.85,0,124.312,55.462,124.312,124.312
		C286.875,232.129,231.412,287.592,162.562,287.592z"/>
</g>
<g>
</g>
<g>
</g>
<g>
</g>
<g>
</g>
<g>
</g>
<g>
</g>
<g>
</g>
<g>
</g>
<g>
</g>
<g>
</g>
<g>
</g>
<g>
</g>
<g>
</g>
<g>
</g>
<g>
</g>
</svg>
