<?xml version="1.0" encoding="iso-8859-1"?>
<!-- Generator: Adobe Illustrator 16.0.0, SVG Export Plug-In . SVG Version: 6.00 Build 0)  -->
<!DOCTYPE svg PUBLIC "-//W3C//DTD SVG 1.1//EN" "http://www.w3.org/Graphics/SVG/1.1/DTD/svg11.dtd">
<svg version="1.1" id="Capa_1" xmlns="http://www.w3.org/2000/svg" xmlns:xlink="http://www.w3.org/1999/xlink" x="0px" y="0px"
	 width="512px" height="512px" viewBox="0 0 512 512" style="enable-background:new 0 0 512 512;" xml:space="preserve">
<g>
	<path d="M448,177.14V448c0,35.344-28.656,64-64,64H64c-35.344,0-64-28.656-64-64V128c0-35.344,28.656-64,64-64h270.844l-63.969,64
		H64v320h320V241.156L448,177.14z M398.875,45.25L376.25,67.875l67.875,67.891l22.625-22.625L398.875,45.25z M444.125,0
		L421.5,22.625l67.875,67.891L512,67.875L444.125,0z M150,294.188l67.875,67.875L421.5,158.406l-67.875-67.891L150,294.188z
		 M128,384h64l-64-64V384z"/>
</g>
<g>
</g>
<g>
</g>
<g>
</g>
<g>
</g>
<g>
</g>
<g>
</g>
<g>
</g>
<g>
</g>
<g>
</g>
<g>
</g>
<g>
</g>
<g>
</g>
<g>
</g>
<g>
</g>
<g>
</g>
</svg>
