<?xml version="1.0" encoding="utf-8"?>
<!-- Generator: Adobe Illustrator 16.0.0, SVG Export Plug-In . SVG Version: 6.00 Build 0)  -->
<svg version="1.2" baseProfile="tiny" id="Layer_1" xmlns="http://www.w3.org/2000/svg" xmlns:xlink="http://www.w3.org/1999/xlink"
	 x="0px" y="0px" width="32px" height="32px" viewBox="0 0 32 32" xml:space="preserve">
<g>
	<path fill="#FFFFFF" d="M21.02,5.005c2.168,0,4,2.519,4,5.5s-1.832,5.5-4,5.5s-4-2.519-4-5.5S18.852,5.005,21.02,5.005
		 M21.02,3.005c-3.313,0-6,3.358-6,7.5c0,4.143,2.687,7.5,6,7.5s6-3.357,6-7.5C27.02,6.363,24.333,3.005,21.02,3.005L21.02,3.005z"
		/>
	<path fill="#FFFFFF" d="M15.927,20.811c-0.356,0.634-0.79,1.192-1.283,1.661c2.406,0.851,4.273,2.495,5.019,4.534H2.375
		c0.745-2.039,2.612-3.684,5.019-4.534C6.9,22.003,6.467,21.444,6.11,20.811c-3.608,1.504-6.092,4.604-6.092,8.195h22
		C22.019,25.415,19.535,22.314,15.927,20.811z"/>
	<g>
		<path fill="#FFFFFF" d="M29.663,21.005H15.811c-0.487,0.81-1.101,1.492-1.807,2H32.02c0-3.591-2.483-6.69-6.092-8.194
			c-0.356,0.633-0.79,1.192-1.283,1.661C27.051,17.321,28.918,18.967,29.663,21.005z"/>
		<path fill="#FFFFFF" d="M17.019,16.505c0,0.041-0.005,0.08-0.005,0.12c0.128-0.051,0.25-0.108,0.381-0.154
			c-0.141-0.134-0.265-0.291-0.396-0.438C17.008,16.19,17.019,16.346,17.019,16.505z"/>
	</g>
	<path fill="#FFFFFF" d="M11.019,11.005c2.168,0,4,2.519,4,5.5c0,2.981-1.832,5.5-4,5.5s-4-2.52-4-5.5
		C7.019,13.524,8.851,11.005,11.019,11.005 M11.019,9.005c-3.313,0-6,3.358-6,7.5c0,4.143,2.687,7.5,6,7.5s6-3.357,6-7.5
		C17.019,12.363,14.332,9.005,11.019,9.005L11.019,9.005z"/>
</g>
</svg>
