<?xml version="1.0" encoding="utf-8"?>
<!-- Generator: Adobe Illustrator 16.0.0, SVG Export Plug-In . SVG Version: 6.00 Build 0)  -->
<svg version="1.2" baseProfile="tiny" id="Layer_1" xmlns="http://www.w3.org/2000/svg" xmlns:xlink="http://www.w3.org/1999/xlink"
	 x="0px" y="0px" width="32px" height="32px" viewBox="0 0 32 32" xml:space="preserve">
<polygon fill="#FFFFFF" points="16.724,21.453 12.094,22.812 13.7,18.262 28.304,4.432 31.326,7.624 "/>
<path fill="#FFFFFF" d="M24.02,18.675v8.345c0,0.551-0.448,1-1,1H3.019c-0.552,0-1-0.449-1-1v-22c0-0.551,0.448-1,1-1H23.02
	c0.361,0,0.664,0.203,0.84,0.49l1.466-1.388C24.774,2.454,23.951,2.02,23.02,2.02H3.019c-1.657,0-3,1.343-3,3v22
	c0,1.656,1.343,3,3,3H23.02c1.656,0,3-1.344,3-3V16.781L24.02,18.675z"/>
<g>
	<polygon fill="#FFFFFF" points="9.265,21.814 9.545,21.02 5.019,21.02 5.019,23.02 8.839,23.02 	"/>
	<polygon fill="#FFFFFF" points="19.096,9.02 5.019,9.02 5.019,11.02 16.984,11.02 	"/>
	<polygon fill="#FFFFFF" points="11.112,16.581 11.638,16.083 12.761,15.02 5.019,15.02 5.019,17.02 10.957,17.02 	"/>
</g>
</svg>
