<?xml version="1.0" encoding="utf-8"?>
<!-- Generator: Adobe Illustrator 16.0.0, SVG Export Plug-In . SVG Version: 6.00 Build 0)  -->
<svg version="1.2" baseProfile="tiny" id="Layer_1" xmlns="http://www.w3.org/2000/svg" xmlns:xlink="http://www.w3.org/1999/xlink"
	 x="0px" y="0px" width="32px" height="32px" viewBox="0 0 32 32" xml:space="preserve">
<path fill="#FFFFFF" d="M26.02,4.005c0.552,0,1,0.449,1,1v22c0,0.552-0.448,1-1,1H6.019c-0.552,0-1-0.448-1-1v-22
	c0-0.551,0.448-1,1-1H26.02 M26.02,2.005H6.019c-1.657,0-3,1.343-3,3v22c0,1.657,1.343,3,3,3H26.02c1.656,0,3-1.343,3-3v-22
	C29.02,3.348,27.676,2.005,26.02,2.005L26.02,2.005z"/>
<g>
	<rect x="12.019" y="9.005" fill="#FFFFFF" width="12.001" height="2"/>
	<rect x="12.019" y="15.005" fill="#FFFFFF" width="12.001" height="2"/>
	<rect x="12.019" y="21.006" fill="#FFFFFF" width="12.001" height="2"/>
</g>
<g>
	<rect x="8.019" y="9.005" fill="#FFFFFF" width="2" height="2"/>
	<rect x="8.019" y="15.005" fill="#FFFFFF" width="2" height="2"/>
	<rect x="8.019" y="21.006" fill="#FFFFFF" width="2" height="2"/>
</g>
</svg>
