<?xml version="1.0" encoding="utf-8"?>
<!-- Generator: Adobe Illustrator 16.0.0, SVG Export Plug-In . SVG Version: 6.00 Build 0)  -->
<svg version="1.2" baseProfile="tiny" id="Layer_1" xmlns="http://www.w3.org/2000/svg" xmlns:xlink="http://www.w3.org/1999/xlink"
	 x="0px" y="0px" width="32px" height="32px" viewBox="0 0 32 32" xml:space="preserve">
<g>
	<rect x="9.016" y="10.003" fill="#FFFFFF" width="14" height="2"/>
	<rect x="9.016" y="16.003" fill="#FFFFFF" width="14" height="2"/>
	<path fill="#FFFFFF" d="M26.009,4.021h-20c-1.656,0-2.999,1.344-2.999,3v14.001c0,1.656,1.343,3,2.999,3h13.495l6.643,4.981v-4.995
		c1.591-0.074,2.862-1.377,2.862-2.986V7.021C29.009,5.364,27.665,4.021,26.009,4.021z M27.009,21.021c0,0.552-0.448,1-1,1h-1.99
		v0.981v1.019v0.981l-1.309-0.981l0,0l-2.667-2H6.009c-0.551,0-0.999-0.448-0.999-1V7.021c0-0.552,0.448-1,0.999-1h20
		c0.552,0,1,0.448,1,1V21.021z"/>
</g>
</svg>
