<?xml version="1.0" encoding="utf-8"?>
<!-- Generator: Adobe Illustrator 16.0.0, SVG Export Plug-In . SVG Version: 6.00 Build 0)  -->
<svg version="1.2" baseProfile="tiny" id="Layer_1" xmlns="http://www.w3.org/2000/svg" xmlns:xlink="http://www.w3.org/1999/xlink"
	 x="0px" y="0px" width="32px" height="32px" viewBox="0 0 32 32" xml:space="preserve">
<g>
	<path fill="#FFFFFF" d="M26.02,4.001c0.552,0,1,0.449,1,1v22c0,0.552-0.448,1-1,1H6.019c-0.552,0-1-0.448-1-1v-22
		c0-0.551,0.448-1,1-1H26.02 M26.02,2.001H6.019c-1.657,0-3,1.343-3,3v22c0,1.657,1.343,3,3,3H26.02c1.656,0,3-1.343,3-3v-22
		C29.02,3.344,27.676,2.001,26.02,2.001L26.02,2.001z"/>
	<rect x="8.019" y="9.001" fill="#FFFFFF" width="8" height="2"/>
	<rect x="8.019" y="15.001" fill="#FFFFFF" width="16.001" height="2"/>
	<rect x="8.019" y="21.002" fill="#FFFFFF" width="12" height="2"/>
</g>
</svg>
