<?xml version="1.0" encoding="utf-8"?>
<!-- Generator: Adobe Illustrator 16.0.0, SVG Export Plug-In . SVG Version: 6.00 Build 0)  -->
<svg version="1.2" baseProfile="tiny" id="Layer_1" xmlns="http://www.w3.org/2000/svg" xmlns:xlink="http://www.w3.org/1999/xlink"
	 x="0px" y="0px" width="32px" height="32px" viewBox="0 0 32 32" xml:space="preserve">
<g>
	<path fill="#FFFFFF" d="M16.019,8.201c2.711,0,5.001,3.206,5.001,7c0,3.795-2.29,7-5.001,7c-2.71,0-5-3.205-5-7
		C11.019,11.407,13.309,8.201,16.019,8.201 M16.019,6.201c-3.865,0-7,4.029-7,9s3.135,9,7,9c3.866,0,7.001-4.029,7.001-9
		S19.885,6.201,16.019,6.201L16.019,6.201z"/>
</g>
<rect x="22.013" y="6" fill="#FFFFFF" width="8" height="2"/>
<rect x="25.013" y="3" fill="#FFFFFF" width="2" height="8"/>
<path fill="#FFFFFF" d="M21.837,20.205c-0.33,0.633-0.725,1.203-1.166,1.708c3.516,1.114,6.186,3.444,7.05,6.288H4.317
	c0.864-2.844,3.534-5.174,7.05-6.288c-0.441-0.505-0.836-1.075-1.166-1.708c-4.825,1.736-8.183,5.555-8.183,9.996H30.02
	C30.02,25.76,26.661,21.941,21.837,20.205z"/>
</svg>
