<?xml version="1.0" encoding="utf-8"?>
<!-- Generator: Adobe Illustrator 16.0.0, SVG Export Plug-In . SVG Version: 6.00 Build 0)  -->
<svg version="1.2" baseProfile="tiny" id="Layer_1" xmlns="http://www.w3.org/2000/svg" xmlns:xlink="http://www.w3.org/1999/xlink"
	 x="0px" y="0px" width="32px" height="32px" viewBox="0 0 32 32" xml:space="preserve">
<g>
	<polygon fill="#FFFFFF" points="15.723,19.498 11.093,20.857 12.7,16.307 27.303,2.476 30.326,5.668 	"/>
	<path fill="#FFFFFF" d="M26.02,13.878v13.187c0,0.552-0.448,1-1,1H5.019c-0.552,0-1-0.448-1-1V7.063c0-0.552,0.448-1,1-1h14.134
		l2.112-2H5.019c-1.657,0-3,1.343-3,3v20.001c0,1.656,1.343,3,3,3H25.02c1.656,0,3-1.344,3-3V11.983L26.02,13.878z"/>
</g>
</svg>
