<?xml version="1.0" encoding="utf-8"?>
<!-- Generator: Adobe Illustrator 16.0.0, SVG Export Plug-In . SVG Version: 6.00 Build 0)  -->
<svg version="1.2" baseProfile="tiny" id="Layer_1" xmlns="http://www.w3.org/2000/svg" xmlns:xlink="http://www.w3.org/1999/xlink"
	 x="0px" y="0px" width="32px" height="32px" viewBox="0 0 32 32" xml:space="preserve">
<polygon fill="#FFFFFF" points="22.523,12.003 15.522,16.003 22.523,20.003 "/>
<path fill="#FFFFFF" d="M26.014,4.013c0.552,0,1,0.448,1,1v22.002c0,0.552-0.448,1-1,1h-20c-0.551,0-0.999-0.448-0.999-1V5.013
	c0-0.552,0.448-1,0.999-1H26.014 M26.014,2.013h-20c-1.656,0-2.999,1.344-2.999,3v22.002c0,1.656,1.343,3,2.999,3h20
	c1.656,0,3-1.344,3-3V5.013C29.014,3.356,27.67,2.013,26.014,2.013L26.014,2.013z"/>
<path fill="#FFFFFF" d="M11.791,29.015h-2v-2h2V29.015z M11.791,25.015h-2v-2h2V25.015z M11.791,21.015h-2v-2h2V21.015z
	 M11.791,17.015h-2v-2h2V17.015z M11.791,13.015h-2v-2h2V13.015z M11.791,9.015h-2v-2h2V9.015z M11.791,5.015h-2v-2h2V5.015z"/>
</svg>
