<?xml version="1.0" encoding="utf-8"?>
<!-- Generator: Adobe Illustrator 16.0.0, SVG Export Plug-In . SVG Version: 6.00 Build 0)  -->
<svg version="1.2" baseProfile="tiny" id="Layer_1" xmlns="http://www.w3.org/2000/svg" xmlns:xlink="http://www.w3.org/1999/xlink"
	 x="0px" y="0px" width="32px" height="32px" viewBox="0 0 32 32" xml:space="preserve">
<polygon fill="#FFFFFF" points="16.519,20.003 23.52,16.003 16.519,12.003 "/>
<path fill="#FFFFFF" d="M26.009,4.013c0.552,0,1,0.448,1,1v22.002c0,0.552-0.448,1-1,1h-20c-0.551,0-0.999-0.448-0.999-1V5.013
	c0-0.552,0.448-1,0.999-1H26.009 M26.009,2.013h-20c-1.656,0-2.999,1.344-2.999,3v22.002c0,1.656,1.343,3,2.999,3h20
	c1.656,0,3-1.344,3-3V5.013C29.009,3.356,27.665,2.013,26.009,2.013L26.009,2.013z"/>
<rect x="9.786" y="3.015" fill="#FFFFFF" width="2" height="26"/>
</svg>
